<?xml version="1.0" encoding="UTF-8" standalone="no"?>
<!-- Uploaded to: SVG Repo, www.svgrepo.com, Generator: SVG Repo Mixer Tools -->

<svg
   height="26.167cm"
   width="43.167cm"
   version="1.1"
   id="_x32_"
   viewBox="0 0 1044.1656 632.95295"
   xml:space="preserve"
   sodipodi:docname="sugar.svg"
   inkscape:version="1.3.2 (091e20e, 2023-11-25)"
   xmlns:inkscape="http://www.inkscape.org/namespaces/inkscape"
   xmlns:sodipodi="http://sodipodi.sourceforge.net/DTD/sodipodi-0.dtd"
   xmlns:xlink="http://www.w3.org/1999/xlink"
   xmlns="http://www.w3.org/2000/svg"
   xmlns:svg="http://www.w3.org/2000/svg"
   xmlns:ns2="http://www.iki.fi/pav/software/textext/"><sodipodi:namedview
   id="namedview1"
   pagecolor="#ffffff"
   bordercolor="#666666"
   borderopacity="1.0"
   inkscape:showpageshadow="2"
   inkscape:pageopacity="0.0"
   inkscape:pagecheckerboard="0"
   inkscape:deskcolor="#d1d1d1"
   inkscape:zoom="0.417193"
   inkscape:cx="620.81578"
   inkscape:cy="590.85363"
   inkscape:window-width="1920"
   inkscape:window-height="942"
   inkscape:window-x="1440"
   inkscape:window-y="25"
   inkscape:window-maximized="1"
   inkscape:current-layer="_x32_"
   inkscape:document-units="cm" /><defs
   id="defs1"><pattern
   inkscape:collect="always"
   xlink:href="#pattern179"
   preserveAspectRatio="xMidYMid"
   id="pattern180"
   patternTransform="scale(10)" /><pattern
   patternUnits="userSpaceOnUse"
   width="10"
   height="10"
   patternTransform="translate(0,0) scale(10,10)"
   preserveAspectRatio="xMidYMid"
   id="pattern179"
   inkscape:stockid="Polka dots, large"
   inkscape:label="Polka dots large"
   inkscape:collect="always"
   inkscape:isstock="true"><circle
     style="stroke:none"
     cx="2.567"
     cy="0.810"
     r="0.45"
     id="circle130" /><circle
     style="stroke:none"
     cx="3.048"
     cy="2.33"
     r="0.45"
     id="circle131" /><circle
     style="stroke:none"
     cx="4.418"
     cy="2.415"
     r="0.45"
     id="circle132" /><circle
     style="stroke:none"
     cx="1.844"
     cy="3.029"
     r="0.45"
     id="circle133" /><circle
     style="stroke:none"
     cx="6.08"
     cy="1.363"
     r="0.45"
     id="circle134" /><circle
     style="stroke:none"
     cx="5.819"
     cy="4.413"
     r="0.45"
     id="circle135" /><circle
     style="stroke:none"
     cx="4.305"
     cy="4.048"
     r="0.45"
     id="circle136" /><circle
     style="stroke:none"
     cx="5.541"
     cy="3.045"
     r="0.45"
     id="circle137" /><circle
     style="stroke:none"
     cx="4.785"
     cy="5.527"
     r="0.45"
     id="circle138" /><circle
     style="stroke:none"
     cx="2.667"
     cy="5.184"
     r="0.45"
     id="circle139" /><circle
     style="stroke:none"
     cx="7.965"
     cy="1.448"
     r="0.45"
     id="circle140" /><circle
     style="stroke:none"
     cx="7.047"
     cy="5.049"
     r="0.45"
     id="circle141" /><circle
     style="stroke:none"
     cx="4.340"
     cy="0.895"
     r="0.45"
     id="circle142" /><circle
     style="stroke:none"
     cx="7.125"
     cy="0.340"
     r="0.45"
     id="circle143" /><circle
     style="stroke:none"
     cx="7.125"
     cy="10.340"
     r="0.45"
     id="circle144" /><circle
     style="stroke:none"
     cx="9.550"
     cy="1.049"
     r="0.45"
     id="circle145" /><circle
     style="stroke:none"
     cx="7.006"
     cy="2.689"
     r="0.45"
     id="circle146" /><circle
     style="stroke:none"
     cx="8.909"
     cy="2.689"
     r="0.45"
     id="circle147" /><circle
     style="stroke:none"
     cx="9.315"
     cy="4.407"
     r="0.45"
     id="circle148" /><circle
     style="stroke:none"
     cx="7.820"
     cy="3.870"
     r="0.45"
     id="circle149" /><circle
     style="stroke:none"
     cx="8.270"
     cy="5.948"
     r="0.45"
     id="circle150" /><circle
     style="stroke:none"
     cx="7.973"
     cy="7.428"
     r="0.45"
     id="circle151" /><circle
     style="stroke:none"
     cx="9.342"
     cy="8.072"
     r="0.45"
     id="circle152" /><circle
     style="stroke:none"
     cx="8.206"
     cy="9.315"
     r="0.45"
     id="circle153" /><circle
     style="stroke:none"
     cx="9.682"
     cy="9.475"
     r="0.45"
     id="circle154" /><circle
     style="stroke:none"
     cx="-0.318"
     cy="9.475"
     r="0.45"
     id="circle155" /><circle
     style="stroke:none"
     cx="9.688"
     cy="6.186"
     r="0.45"
     id="circle156" /><circle
     style="stroke:none"
     cx="-0.312"
     cy="6.186"
     r="0.45"
     id="circle157" /><circle
     style="stroke:none"
     cx="3.379"
     cy="6.296"
     r="0.45"
     id="circle158" /><circle
     style="stroke:none"
     cx="2.871"
     cy="8.204"
     r="0.45"
     id="circle159" /><circle
     style="stroke:none"
     cx="4.59"
     cy="8.719"
     r="0.45"
     id="circle160" /><circle
     style="stroke:none"
     cx="3.181"
     cy="9.671"
     r="0.45"
     id="circle161" /><circle
     style="stroke:none"
     cx="3.181"
     cy="-0.329"
     r="0.45"
     id="circle162" /><circle
     style="stroke:none"
     cx="5.734"
     cy="7.315"
     r="0.45"
     id="circle163" /><circle
     style="stroke:none"
     cx="6.707"
     cy="6.513"
     r="0.45"
     id="circle164" /><circle
     style="stroke:none"
     cx="5.730"
     cy="9.670"
     r="0.45"
     id="circle165" /><circle
     style="stroke:none"
     cx="5.730"
     cy="-0.330"
     r="0.45"
     id="circle166" /><circle
     style="stroke:none"
     cx="6.535"
     cy="8.373"
     r="0.45"
     id="circle167" /><circle
     style="stroke:none"
     cx="4.37"
     cy="7.154"
     r="0.45"
     id="circle168" /><circle
     style="stroke:none"
     cx="0.622"
     cy="7.25"
     r="0.45"
     id="circle169" /><circle
     style="stroke:none"
     cx="0.831"
     cy="5.679"
     r="0.45"
     id="circle170" /><circle
     style="stroke:none"
     cx="1.257"
     cy="8.519"
     r="0.45"
     id="circle171" /><circle
     style="stroke:none"
     cx="1.989"
     cy="6.877"
     r="0.45"
     id="circle172" /><circle
     style="stroke:none"
     cx="0.374"
     cy="3.181"
     r="0.45"
     id="circle173" /><circle
     style="stroke:none"
     cx="10.374"
     cy="3.181"
     r="0.45"
     id="circle174" /><circle
     style="stroke:none"
     cx="1.166"
     cy="1.664"
     r="0.45"
     id="circle175" /><circle
     style="stroke:none"
     cx="1.151"
     cy="0.093"
     r="0.45"
     id="circle176" /><circle
     style="stroke:none"
     cx="1.151"
     cy="10.093"
     r="0.45"
     id="circle177" /><circle
     style="stroke:none"
     cx="1.302"
     cy="4.451"
     r="0.45"
     id="circle178" /><circle
     style="stroke:none"
     cx="3.047"
     cy="3.763"
     r="0.45"
     id="circle179" /></pattern><pattern
   inkscape:collect="always"
   xlink:href="#pattern128"
   preserveAspectRatio="xMidYMid"
   id="pattern129"
   patternTransform="scale(10)"
   x="0"
   y="0" /><pattern
   patternUnits="userSpaceOnUse"
   width="10"
   height="10"
   patternTransform="translate(0,0) scale(10,10)"
   preserveAspectRatio="xMidYMid"
   id="pattern128"
   inkscape:stockid="Polka dots, large"
   inkscape:label="Polka dots large"
   inkscape:collect="always"
   inkscape:isstock="true"><circle
     style="stroke:none"
     cx="2.567"
     cy="0.810"
     r="0.45"
     id="circle79" /><circle
     style="stroke:none"
     cx="3.048"
     cy="2.33"
     r="0.45"
     id="circle80" /><circle
     style="stroke:none"
     cx="4.418"
     cy="2.415"
     r="0.45"
     id="circle81" /><circle
     style="stroke:none"
     cx="1.844"
     cy="3.029"
     r="0.45"
     id="circle82" /><circle
     style="stroke:none"
     cx="6.08"
     cy="1.363"
     r="0.45"
     id="circle83" /><circle
     style="stroke:none"
     cx="5.819"
     cy="4.413"
     r="0.45"
     id="circle84" /><circle
     style="stroke:none"
     cx="4.305"
     cy="4.048"
     r="0.45"
     id="circle85" /><circle
     style="stroke:none"
     cx="5.541"
     cy="3.045"
     r="0.45"
     id="circle86" /><circle
     style="stroke:none"
     cx="4.785"
     cy="5.527"
     r="0.45"
     id="circle87" /><circle
     style="stroke:none"
     cx="2.667"
     cy="5.184"
     r="0.45"
     id="circle88" /><circle
     style="stroke:none"
     cx="7.965"
     cy="1.448"
     r="0.45"
     id="circle89" /><circle
     style="stroke:none"
     cx="7.047"
     cy="5.049"
     r="0.45"
     id="circle90" /><circle
     style="stroke:none"
     cx="4.340"
     cy="0.895"
     r="0.45"
     id="circle91" /><circle
     style="stroke:none"
     cx="7.125"
     cy="0.340"
     r="0.45"
     id="circle92" /><circle
     style="stroke:none"
     cx="7.125"
     cy="10.340"
     r="0.45"
     id="circle93" /><circle
     style="stroke:none"
     cx="9.550"
     cy="1.049"
     r="0.45"
     id="circle94" /><circle
     style="stroke:none"
     cx="7.006"
     cy="2.689"
     r="0.45"
     id="circle95" /><circle
     style="stroke:none"
     cx="8.909"
     cy="2.689"
     r="0.45"
     id="circle96" /><circle
     style="stroke:none"
     cx="9.315"
     cy="4.407"
     r="0.45"
     id="circle97" /><circle
     style="stroke:none"
     cx="7.820"
     cy="3.870"
     r="0.45"
     id="circle98" /><circle
     style="stroke:none"
     cx="8.270"
     cy="5.948"
     r="0.45"
     id="circle99" /><circle
     style="stroke:none"
     cx="7.973"
     cy="7.428"
     r="0.45"
     id="circle100" /><circle
     style="stroke:none"
     cx="9.342"
     cy="8.072"
     r="0.45"
     id="circle101" /><circle
     style="stroke:none"
     cx="8.206"
     cy="9.315"
     r="0.45"
     id="circle102" /><circle
     style="stroke:none"
     cx="9.682"
     cy="9.475"
     r="0.45"
     id="circle103" /><circle
     style="stroke:none"
     cx="-0.318"
     cy="9.475"
     r="0.45"
     id="circle104" /><circle
     style="stroke:none"
     cx="9.688"
     cy="6.186"
     r="0.45"
     id="circle105" /><circle
     style="stroke:none"
     cx="-0.312"
     cy="6.186"
     r="0.45"
     id="circle106" /><circle
     style="stroke:none"
     cx="3.379"
     cy="6.296"
     r="0.45"
     id="circle107" /><circle
     style="stroke:none"
     cx="2.871"
     cy="8.204"
     r="0.45"
     id="circle108" /><circle
     style="stroke:none"
     cx="4.59"
     cy="8.719"
     r="0.45"
     id="circle109" /><circle
     style="stroke:none"
     cx="3.181"
     cy="9.671"
     r="0.45"
     id="circle110" /><circle
     style="stroke:none"
     cx="3.181"
     cy="-0.329"
     r="0.45"
     id="circle111" /><circle
     style="stroke:none"
     cx="5.734"
     cy="7.315"
     r="0.45"
     id="circle112" /><circle
     style="stroke:none"
     cx="6.707"
     cy="6.513"
     r="0.45"
     id="circle113" /><circle
     style="stroke:none"
     cx="5.730"
     cy="9.670"
     r="0.45"
     id="circle114" /><circle
     style="stroke:none"
     cx="5.730"
     cy="-0.330"
     r="0.45"
     id="circle115" /><circle
     style="stroke:none"
     cx="6.535"
     cy="8.373"
     r="0.45"
     id="circle116" /><circle
     style="stroke:none"
     cx="4.37"
     cy="7.154"
     r="0.45"
     id="circle117" /><circle
     style="stroke:none"
     cx="0.622"
     cy="7.25"
     r="0.45"
     id="circle118" /><circle
     style="stroke:none"
     cx="0.831"
     cy="5.679"
     r="0.45"
     id="circle119" /><circle
     style="stroke:none"
     cx="1.257"
     cy="8.519"
     r="0.45"
     id="circle120" /><circle
     style="stroke:none"
     cx="1.989"
     cy="6.877"
     r="0.45"
     id="circle121" /><circle
     style="stroke:none"
     cx="0.374"
     cy="3.181"
     r="0.45"
     id="circle122" /><circle
     style="stroke:none"
     cx="10.374"
     cy="3.181"
     r="0.45"
     id="circle123" /><circle
     style="stroke:none"
     cx="1.166"
     cy="1.664"
     r="0.45"
     id="circle124" /><circle
     style="stroke:none"
     cx="1.151"
     cy="0.093"
     r="0.45"
     id="circle125" /><circle
     style="stroke:none"
     cx="1.151"
     cy="10.093"
     r="0.45"
     id="circle126" /><circle
     style="stroke:none"
     cx="1.302"
     cy="4.451"
     r="0.45"
     id="circle127" /><circle
     style="stroke:none"
     cx="3.047"
     cy="3.763"
     r="0.45"
     id="circle128" /></pattern><pattern
   inkscape:collect="always"
   xlink:href="#Polkadots-large"
   preserveAspectRatio="xMidYMid"
   id="pattern79"
   patternTransform="scale(10)" /><pattern
   patternUnits="userSpaceOnUse"
   width="10"
   height="10"
   patternTransform="translate(0,0) scale(10,10)"
   preserveAspectRatio="xMidYMid"
   id="Polkadots-large"
   inkscape:stockid="Polka dots, large"
   inkscape:label="Polka dots large"
   inkscape:collect="always"
   inkscape:isstock="true"><circle
     style="stroke:none"
     cx="2.567"
     cy="0.810"
     r="0.45"
     id="circle584" /><circle
     style="stroke:none"
     cx="3.048"
     cy="2.33"
     r="0.45"
     id="circle586" /><circle
     style="stroke:none"
     cx="4.418"
     cy="2.415"
     r="0.45"
     id="circle588" /><circle
     style="stroke:none"
     cx="1.844"
     cy="3.029"
     r="0.45"
     id="circle590" /><circle
     style="stroke:none"
     cx="6.08"
     cy="1.363"
     r="0.45"
     id="circle592" /><circle
     style="stroke:none"
     cx="5.819"
     cy="4.413"
     r="0.45"
     id="circle594" /><circle
     style="stroke:none"
     cx="4.305"
     cy="4.048"
     r="0.45"
     id="circle596" /><circle
     style="stroke:none"
     cx="5.541"
     cy="3.045"
     r="0.45"
     id="circle598" /><circle
     style="stroke:none"
     cx="4.785"
     cy="5.527"
     r="0.45"
     id="circle600" /><circle
     style="stroke:none"
     cx="2.667"
     cy="5.184"
     r="0.45"
     id="circle602" /><circle
     style="stroke:none"
     cx="7.965"
     cy="1.448"
     r="0.45"
     id="circle604" /><circle
     style="stroke:none"
     cx="7.047"
     cy="5.049"
     r="0.45"
     id="circle606" /><circle
     style="stroke:none"
     cx="4.340"
     cy="0.895"
     r="0.45"
     id="circle608" /><circle
     style="stroke:none"
     cx="7.125"
     cy="0.340"
     r="0.45"
     id="circle610" /><circle
     style="stroke:none"
     cx="7.125"
     cy="10.340"
     r="0.45"
     id="circle612" /><circle
     style="stroke:none"
     cx="9.550"
     cy="1.049"
     r="0.45"
     id="circle614" /><circle
     style="stroke:none"
     cx="7.006"
     cy="2.689"
     r="0.45"
     id="circle616" /><circle
     style="stroke:none"
     cx="8.909"
     cy="2.689"
     r="0.45"
     id="circle618" /><circle
     style="stroke:none"
     cx="9.315"
     cy="4.407"
     r="0.45"
     id="circle620" /><circle
     style="stroke:none"
     cx="7.820"
     cy="3.870"
     r="0.45"
     id="circle622" /><circle
     style="stroke:none"
     cx="8.270"
     cy="5.948"
     r="0.45"
     id="circle624" /><circle
     style="stroke:none"
     cx="7.973"
     cy="7.428"
     r="0.45"
     id="circle626" /><circle
     style="stroke:none"
     cx="9.342"
     cy="8.072"
     r="0.45"
     id="circle628" /><circle
     style="stroke:none"
     cx="8.206"
     cy="9.315"
     r="0.45"
     id="circle630" /><circle
     style="stroke:none"
     cx="9.682"
     cy="9.475"
     r="0.45"
     id="circle632" /><circle
     style="stroke:none"
     cx="-0.318"
     cy="9.475"
     r="0.45"
     id="circle634" /><circle
     style="stroke:none"
     cx="9.688"
     cy="6.186"
     r="0.45"
     id="circle636" /><circle
     style="stroke:none"
     cx="-0.312"
     cy="6.186"
     r="0.45"
     id="circle638" /><circle
     style="stroke:none"
     cx="3.379"
     cy="6.296"
     r="0.45"
     id="circle640" /><circle
     style="stroke:none"
     cx="2.871"
     cy="8.204"
     r="0.45"
     id="circle642" /><circle
     style="stroke:none"
     cx="4.59"
     cy="8.719"
     r="0.45"
     id="circle644" /><circle
     style="stroke:none"
     cx="3.181"
     cy="9.671"
     r="0.45"
     id="circle646" /><circle
     style="stroke:none"
     cx="3.181"
     cy="-0.329"
     r="0.45"
     id="circle648" /><circle
     style="stroke:none"
     cx="5.734"
     cy="7.315"
     r="0.45"
     id="circle650" /><circle
     style="stroke:none"
     cx="6.707"
     cy="6.513"
     r="0.45"
     id="circle652" /><circle
     style="stroke:none"
     cx="5.730"
     cy="9.670"
     r="0.45"
     id="circle654" /><circle
     style="stroke:none"
     cx="5.730"
     cy="-0.330"
     r="0.45"
     id="circle656" /><circle
     style="stroke:none"
     cx="6.535"
     cy="8.373"
     r="0.45"
     id="circle658" /><circle
     style="stroke:none"
     cx="4.37"
     cy="7.154"
     r="0.45"
     id="circle660" /><circle
     style="stroke:none"
     cx="0.622"
     cy="7.25"
     r="0.45"
     id="circle662" /><circle
     style="stroke:none"
     cx="0.831"
     cy="5.679"
     r="0.45"
     id="circle664" /><circle
     style="stroke:none"
     cx="1.257"
     cy="8.519"
     r="0.45"
     id="circle666" /><circle
     style="stroke:none"
     cx="1.989"
     cy="6.877"
     r="0.45"
     id="circle668" /><circle
     style="stroke:none"
     cx="0.374"
     cy="3.181"
     r="0.45"
     id="circle670" /><circle
     style="stroke:none"
     cx="10.374"
     cy="3.181"
     r="0.45"
     id="circle672" /><circle
     style="stroke:none"
     cx="1.166"
     cy="1.664"
     r="0.45"
     id="circle674" /><circle
     style="stroke:none"
     cx="1.151"
     cy="0.093"
     r="0.45"
     id="circle676" /><circle
     style="stroke:none"
     cx="1.151"
     cy="10.093"
     r="0.45"
     id="circle678" /><circle
     style="stroke:none"
     cx="1.302"
     cy="4.451"
     r="0.45"
     id="circle680" /><circle
     style="stroke:none"
     cx="3.047"
     cy="3.763"
     r="0.45"
     id="circle682" /></pattern>
	
</defs>
<style
   type="text/css"
   id="style1">
	.st0{fill:#000000;}
</style>
<path
   d="m 740.09279,136.76153 -200.134,-85.628997 c -5.661,-2.438 -11.675,-3.673 -17.876,-3.673 -6.191,0 -12.195,1.235 -17.876,3.673 l -200.133,85.628997 c -16.74,7.161 -27.564,23.558 -27.564,41.777 v 249.853 c 0,18.21 10.824,34.606 27.564,41.777 l 200.143,85.628 c 5.681,2.429 11.685,3.663 17.866,3.663 6.18,0 12.186,-1.234 17.876,-3.663 l 200.134,-85.628 c 16.739,-7.171 27.563,-23.567 27.563,-41.777 v -249.854 c 0,-18.218 -10.824,-34.616 -27.563,-41.776 z"
   id="path1" /><path
   d="m 522.08279,78.059533 c 2.018,0 3.987,0.401 5.828,1.195 l 193.776,82.905997 -199.604,85.403 -199.605,-85.403 193.767,-82.905997 c 1.852,-0.794 3.82,-1.195 5.838,-1.195 z"
   id="path66"
   style="fill:#ffffff" /><path
   d="m 728.04479,442.04653 -197.303,84.423 v -263.782 l 205.776,-88.048 c 0.363,1.283 0.538,2.586 0.538,3.899 v 249.853 c 0,5.946 -3.536,11.314 -9.011,13.655 z"
   id="path65"
   style="fill:#ffffff" /><path
   d="m 307.10979,428.39153 v -249.854 c 0,-1.313 0.176,-2.616 0.539,-3.899 l 205.785,88.048 v 263.783 l -197.313,-84.423 c -5.475,-2.341 -9.011,-7.709 -9.011,-13.655 z"
   id="path64"
   style="fill:#ffffff" />
<g
   transform="matrix(7.7268566,0,0,7.7268566,773.02308,126.54361)"
   ns2:version="1.8.2"
   ns2:texconverter="pdflatex"
   ns2:pdfconverter="inkscape"
   ns2:text="$\\mathrm{e}_1$"
   ns2:preamble="/Users/manelvelasco/Library/Application Support/org.inkscape.Inkscape/config/inkscape/extensions/textext/default_packages.tex"
   ns2:scale="1.4232992354882334"
   ns2:alignment="middle center"
   ns2:stroke-to-path="0"
   id="g7960"
   ns2:jacobian_sqrt="1.89773"
   style="stroke-width:0.245602"><defs
   id="id-eb378757-05e0-47e8-921a-2d1846c370a8">
    <g
   id="id-3160554a-35a8-4724-87da-880ec67d026f">
      <g
   id="id-3e414266-9f09-48ad-8fbb-85d2183dc2ed" />
      <g
   id="id-7f76613e-282d-4758-9aef-81eb5a80f8d8">
        <path
   d="M 1.109375,-2.515625 C 1.171875,-4 2.015625,-4.25 2.359375,-4.25 c 1.015625,0 1.125,1.34375 1.125,1.734375 z m 0,0.21875 h 2.78125 c 0.21875,0 0.25,0 0.25,-0.21875 0,-0.984375 -0.546875,-1.953125 -1.78125,-1.953125 -1.15625,0 -2.078125,1.03125 -2.078125,2.28125 0,1.328125 1.046875,2.296875 2.1875,2.296875 C 3.6875,0.109375 4.140625,-1 4.140625,-1.1875 4.140625,-1.28125 4.0625,-1.3125 4,-1.3125 c -0.078125,0 -0.109375,0.0625 -0.125,0.140625 -0.34375,1.03125 -1.25,1.03125 -1.34375,1.03125 -0.5,0 -0.890625,-0.296875 -1.125,-0.671875 -0.296875,-0.46875 -0.296875,-1.125 -0.296875,-1.484375 z m 0,0"
   id="id-bcb4dc4c-f47a-4dcf-9b5f-32e2e9bc464d" />
      </g>
      <g
   id="id-c2cb3fd8-a9b4-46ec-98e9-0e07111f109b" />
      <g
   id="id-716d7460-3420-4e02-b1f2-8030fa1604df">
        <path
   d="m 2.328125,-4.4375 c 0,-0.1875 0,-0.1875 -0.203125,-0.1875 -0.453125,0.4375 -1.078125,0.4375 -1.359375,0.4375 v 0.25 c 0.15625,0 0.625,0 1,-0.1875 v 3.546875 c 0,0.234375 0,0.328125 -0.6875,0.328125 H 0.8125 V 0 c 0.125,0 0.984375,-0.03125 1.234375,-0.03125 0.21875,0 1.09375,0.03125 1.25,0.03125 V -0.25 H 3.03125 c -0.703125,0 -0.703125,-0.09375 -0.703125,-0.328125 z m 0,0"
   id="id-2e330b32-ea8a-470c-b3c2-9c5abffebcd8" />
      </g>
    </g>
  </defs>
  <g
   fill="#000000"
   fill-opacity="1"
   id="id-a2932ec7-87ed-40ab-900f-80aa63340ba3"
   transform="translate(-148.993,-130.296)"
   style="stroke-width:0.245602">
    <g
   transform="translate(148.712,134.765)"
   id="g688"
   style="stroke-width:0.245602"><path
   d="M 1.109375,-2.515625 C 1.171875,-4 2.015625,-4.25 2.359375,-4.25 c 1.015625,0 1.125,1.34375 1.125,1.734375 z m 0,0.21875 h 2.78125 c 0.21875,0 0.25,0 0.25,-0.21875 0,-0.984375 -0.546875,-1.953125 -1.78125,-1.953125 -1.15625,0 -2.078125,1.03125 -2.078125,2.28125 0,1.328125 1.046875,2.296875 2.1875,2.296875 C 3.6875,0.109375 4.140625,-1 4.140625,-1.1875 4.140625,-1.28125 4.0625,-1.3125 4,-1.3125 c -0.078125,0 -0.109375,0.0625 -0.125,0.140625 -0.34375,1.03125 -1.25,1.03125 -1.34375,1.03125 -0.5,0 -0.890625,-0.296875 -1.125,-0.671875 -0.296875,-0.46875 -0.296875,-1.125 -0.296875,-1.484375 z m 0,0"
   id="id-e5b69d13-6b42-4187-a68d-53424e78f5b5"
   style="stroke-width:0.245602" />
      </g></g>
  <g
   fill="#000000"
   fill-opacity="1"
   id="id-11a32bc7-50a8-417a-8734-c1aff6adba76"
   transform="translate(-148.993,-130.296)"
   style="stroke-width:0.245602">
    <g
   transform="translate(153.14,136.259)"
   id="g4634"
   style="stroke-width:0.245602"><path
   d="m 2.328125,-4.4375 c 0,-0.1875 0,-0.1875 -0.203125,-0.1875 -0.453125,0.4375 -1.078125,0.4375 -1.359375,0.4375 v 0.25 c 0.15625,0 0.625,0 1,-0.1875 v 3.546875 c 0,0.234375 0,0.328125 -0.6875,0.328125 H 0.8125 V 0 c 0.125,0 0.984375,-0.03125 1.234375,-0.03125 0.21875,0 1.09375,0.03125 1.25,0.03125 V -0.25 H 3.03125 c -0.703125,0 -0.703125,-0.09375 -0.703125,-0.328125 z m 0,0"
   id="id-da051dc7-594b-48f9-a0a5-30dd55a5df0a"
   style="stroke-width:0.245602" />
      </g></g>
</g><g
   transform="matrix(7.72686,0,0,7.72686,501.13681,574.63257)"
   ns2:version="1.8.2"
   ns2:texconverter="pdflatex"
   ns2:pdfconverter="inkscape"
   ns2:text="$\\mathrm{e}_2$"
   ns2:preamble="/Users/manelvelasco/Library/Application Support/org.inkscape.Inkscape/config/inkscape/extensions/textext/default_packages.tex"
   ns2:scale="5.795149516267967"
   ns2:alignment="middle center"
   ns2:stroke-to-path="0"
   id="g11"
   ns2:jacobian_sqrt="7.72686"
   style="stroke-width:0"><defs
   id="id-03ea7721-77ae-44f5-8b06-0ba754fa860f"
   style="stroke-width:0">
    <g
   id="id-108d2239-bb68-46c3-9a58-ebf78ca40b9d"
   style="stroke-width:0">
      <g
   id="id-0a0dd591-1d3c-4c2e-8dfc-f04bd3657640"
   style="stroke-width:0" />
      <g
   id="id-847f8877-b430-4017-bf0f-71409deeefb2"
   style="stroke-width:0">
        <path
   d="M 1.109375,-2.515625 C 1.171875,-4 2.015625,-4.25 2.359375,-4.25 c 1.015625,0 1.125,1.34375 1.125,1.734375 z m 0,0.21875 h 2.78125 c 0.21875,0 0.25,0 0.25,-0.21875 0,-0.984375 -0.546875,-1.953125 -1.78125,-1.953125 -1.15625,0 -2.078125,1.03125 -2.078125,2.28125 0,1.328125 1.046875,2.296875 2.1875,2.296875 C 3.6875,0.109375 4.140625,-1 4.140625,-1.1875 4.140625,-1.28125 4.0625,-1.3125 4,-1.3125 c -0.078125,0 -0.109375,0.0625 -0.125,0.140625 -0.34375,1.03125 -1.25,1.03125 -1.34375,1.03125 -0.5,0 -0.890625,-0.296875 -1.125,-0.671875 -0.296875,-0.46875 -0.296875,-1.125 -0.296875,-1.484375 z m 0,0"
   id="id-bdb715c9-54e4-4fe9-b706-93d939379135"
   style="stroke-width:0" />
      </g>
      <g
   id="id-1e28b5fc-b16a-4676-9a23-c4090cc83cc7"
   style="stroke-width:0" />
      <g
   id="id-4992ceef-d6e5-4f7d-8cc0-3cebaf8a3bc6"
   style="stroke-width:0">
        <path
   d="M 3.515625,-1.265625 H 3.28125 c -0.015625,0.15625 -0.09375,0.5625 -0.1875,0.625 C 3.046875,-0.59375 2.515625,-0.59375 2.40625,-0.59375 H 1.125 c 0.734375,-0.640625 0.984375,-0.84375 1.390625,-1.171875 0.515625,-0.40625 1,-0.84375 1,-1.5 0,-0.84375 -0.734375,-1.359375 -1.625,-1.359375 -0.859375,0 -1.453125,0.609375 -1.453125,1.25 0,0.34375 0.296875,0.390625 0.375,0.390625 0.15625,0 0.359375,-0.125 0.359375,-0.375 0,-0.125 -0.046875,-0.375 -0.40625,-0.375 C 0.984375,-4.21875 1.453125,-4.375 1.78125,-4.375 c 0.703125,0 1.0625,0.546875 1.0625,1.109375 0,0.609375 -0.4375,1.078125 -0.65625,1.328125 L 0.515625,-0.265625 C 0.4375,-0.203125 0.4375,-0.1875 0.4375,0 h 2.875 z m 0,0"
   id="id-79865c5a-7c1f-45c4-829c-9b4157e63f48"
   style="stroke-width:0" />
      </g>
    </g>
  </defs>
  <g
   fill="#000000"
   fill-opacity="1"
   id="id-b99bc94e-0904-494a-8071-ebf13072e778"
   transform="translate(-148.993,-130.296)"
   style="stroke-width:0">
    <g
   transform="translate(148.712,134.765)"
   id="g4729"
   style="stroke-width:0"><path
   d="M 1.109375,-2.515625 C 1.171875,-4 2.015625,-4.25 2.359375,-4.25 c 1.015625,0 1.125,1.34375 1.125,1.734375 z m 0,0.21875 h 2.78125 c 0.21875,0 0.25,0 0.25,-0.21875 0,-0.984375 -0.546875,-1.953125 -1.78125,-1.953125 -1.15625,0 -2.078125,1.03125 -2.078125,2.28125 0,1.328125 1.046875,2.296875 2.1875,2.296875 C 3.6875,0.109375 4.140625,-1 4.140625,-1.1875 4.140625,-1.28125 4.0625,-1.3125 4,-1.3125 c -0.078125,0 -0.109375,0.0625 -0.125,0.140625 -0.34375,1.03125 -1.25,1.03125 -1.34375,1.03125 -0.5,0 -0.890625,-0.296875 -1.125,-0.671875 -0.296875,-0.46875 -0.296875,-1.125 -0.296875,-1.484375 z m 0,0"
   id="id-49fa922a-7719-4a43-99cd-6ee1ab7844cb"
   style="stroke-width:0" />
      </g></g>
  <g
   fill="#000000"
   fill-opacity="1"
   id="id-dfd3a5cc-e583-4c1d-8ea8-dff07bcb7085"
   transform="translate(-148.993,-130.296)"
   style="stroke-width:0">
    <g
   transform="translate(153.14,136.259)"
   id="g4147"
   style="stroke-width:0"><path
   d="M 3.515625,-1.265625 H 3.28125 c -0.015625,0.15625 -0.09375,0.5625 -0.1875,0.625 C 3.046875,-0.59375 2.515625,-0.59375 2.40625,-0.59375 H 1.125 c 0.734375,-0.640625 0.984375,-0.84375 1.390625,-1.171875 0.515625,-0.40625 1,-0.84375 1,-1.5 0,-0.84375 -0.734375,-1.359375 -1.625,-1.359375 -0.859375,0 -1.453125,0.609375 -1.453125,1.25 0,0.34375 0.296875,0.390625 0.375,0.390625 0.15625,0 0.359375,-0.125 0.359375,-0.375 0,-0.125 -0.046875,-0.375 -0.40625,-0.375 C 0.984375,-4.21875 1.453125,-4.375 1.78125,-4.375 c 0.703125,0 1.0625,0.546875 1.0625,1.109375 0,0.609375 -0.4375,1.078125 -0.65625,1.328125 L 0.515625,-0.265625 C 0.4375,-0.203125 0.4375,-0.1875 0.4375,0 h 2.875 z m 0,0"
   id="id-ba8cf171-c629-4606-afec-ec8b6bd0b1ee"
   style="stroke-width:0" />
      </g></g>
</g><g
   transform="matrix(7.72686,0,0,7.72686,203.00784,121.05405)"
   ns2:version="1.8.2"
   ns2:texconverter="pdflatex"
   ns2:pdfconverter="inkscape"
   ns2:text="$\\mathrm{e}_3$"
   ns2:preamble="/Users/manelvelasco/Library/Application Support/org.inkscape.Inkscape/config/inkscape/extensions/textext/default_packages.tex"
   ns2:scale="5.795149516267967"
   ns2:alignment="middle center"
   ns2:stroke-to-path="0"
   id="g21"
   ns2:jacobian_sqrt="7.72686"
   style="stroke-width:0"><defs
   id="id-1ab84ac9-f86f-4a56-9786-9b50fe9915a0"
   style="stroke-width:0">
    <g
   id="id-f5b5e70c-09cd-4ac7-b73f-f7d05358a90f"
   style="stroke-width:0">
      <g
   id="id-a2d20385-6a0e-405e-982f-d08014daca4a"
   style="stroke-width:0" />
      <g
   id="id-b4ec2636-8274-4891-8b55-9946b3cad771"
   style="stroke-width:0">
        <path
   d="M 1.109375,-2.515625 C 1.171875,-4 2.015625,-4.25 2.359375,-4.25 c 1.015625,0 1.125,1.34375 1.125,1.734375 z m 0,0.21875 h 2.78125 c 0.21875,0 0.25,0 0.25,-0.21875 0,-0.984375 -0.546875,-1.953125 -1.78125,-1.953125 -1.15625,0 -2.078125,1.03125 -2.078125,2.28125 0,1.328125 1.046875,2.296875 2.1875,2.296875 C 3.6875,0.109375 4.140625,-1 4.140625,-1.1875 4.140625,-1.28125 4.0625,-1.3125 4,-1.3125 c -0.078125,0 -0.109375,0.0625 -0.125,0.140625 -0.34375,1.03125 -1.25,1.03125 -1.34375,1.03125 -0.5,0 -0.890625,-0.296875 -1.125,-0.671875 -0.296875,-0.46875 -0.296875,-1.125 -0.296875,-1.484375 z m 0,0"
   id="id-8f0bdb37-e685-47bf-bd9c-d7d7b517bcad"
   style="stroke-width:0" />
      </g>
      <g
   id="id-ad378fa7-a93b-4ecc-b4ff-f80e0b7b7b8e"
   style="stroke-width:0" />
      <g
   id="id-8a24d6c0-51cf-473e-95f2-95bd5b7f11c7"
   style="stroke-width:0">
        <path
   d="m 1.90625,-2.328125 c 0.546875,0 0.9375,0.375 0.9375,1.125 0,0.859375 -0.515625,1.125 -0.90625,1.125 -0.28125,0 -0.90625,-0.078125 -1.1875,-0.5 0.328125,0 0.40625,-0.234375 0.40625,-0.390625 0,-0.21875 -0.171875,-0.375 -0.390625,-0.375 -0.1875,0 -0.390625,0.125 -0.390625,0.40625 0,0.65625 0.71875,1.078125 1.5625,1.078125 0.96875,0 1.640625,-0.65625 1.640625,-1.34375 0,-0.546875 -0.4375,-1.09375 -1.203125,-1.25 0.71875,-0.265625 0.984375,-0.78125 0.984375,-1.21875 0,-0.546875 -0.625,-0.953125 -1.40625,-0.953125 -0.765625,0 -1.359375,0.375 -1.359375,0.9375 0,0.234375 0.15625,0.359375 0.359375,0.359375 0.21875,0 0.359375,-0.15625 0.359375,-0.34375 0,-0.203125 -0.140625,-0.359375 -0.359375,-0.375 0.25,-0.296875 0.71875,-0.375 0.984375,-0.375 0.3125,0 0.75,0.15625 0.75,0.75 0,0.296875 -0.09375,0.625 -0.28125,0.828125 -0.21875,0.265625 -0.421875,0.28125 -0.765625,0.3125 -0.171875,0.015625 -0.1875,0.015625 -0.21875,0.015625 -0.015625,0 -0.078125,0.015625 -0.078125,0.09375 0,0.09375 0.0625,0.09375 0.1875,0.09375 z m 0,0"
   id="id-45bfdc23-3031-4c4d-a565-47cb2fb3efc1"
   style="stroke-width:0" />
      </g>
    </g>
  </defs>
  <g
   fill="#000000"
   fill-opacity="1"
   id="id-31e97d44-4a86-4328-9628-76fd8e680c4f"
   transform="translate(-148.993,-130.296)"
   style="stroke-width:0">
    <g
   transform="translate(148.712,134.765)"
   id="g4812"
   style="stroke-width:0"><path
   d="M 1.109375,-2.515625 C 1.171875,-4 2.015625,-4.25 2.359375,-4.25 c 1.015625,0 1.125,1.34375 1.125,1.734375 z m 0,0.21875 h 2.78125 c 0.21875,0 0.25,0 0.25,-0.21875 0,-0.984375 -0.546875,-1.953125 -1.78125,-1.953125 -1.15625,0 -2.078125,1.03125 -2.078125,2.28125 0,1.328125 1.046875,2.296875 2.1875,2.296875 C 3.6875,0.109375 4.140625,-1 4.140625,-1.1875 4.140625,-1.28125 4.0625,-1.3125 4,-1.3125 c -0.078125,0 -0.109375,0.0625 -0.125,0.140625 -0.34375,1.03125 -1.25,1.03125 -1.34375,1.03125 -0.5,0 -0.890625,-0.296875 -1.125,-0.671875 -0.296875,-0.46875 -0.296875,-1.125 -0.296875,-1.484375 z m 0,0"
   id="id-4acf1e53-9143-4990-be12-50cd7332abd6"
   style="stroke-width:0" />
      </g></g>
  <g
   fill="#000000"
   fill-opacity="1"
   id="id-f066b022-607f-4a01-89be-d24d52bf923c"
   transform="translate(-148.993,-130.296)"
   style="stroke-width:0">
    <g
   transform="translate(153.14,136.259)"
   id="g6953"
   style="stroke-width:0"><path
   d="m 1.90625,-2.328125 c 0.546875,0 0.9375,0.375 0.9375,1.125 0,0.859375 -0.515625,1.125 -0.90625,1.125 -0.28125,0 -0.90625,-0.078125 -1.1875,-0.5 0.328125,0 0.40625,-0.234375 0.40625,-0.390625 0,-0.21875 -0.171875,-0.375 -0.390625,-0.375 -0.1875,0 -0.390625,0.125 -0.390625,0.40625 0,0.65625 0.71875,1.078125 1.5625,1.078125 0.96875,0 1.640625,-0.65625 1.640625,-1.34375 0,-0.546875 -0.4375,-1.09375 -1.203125,-1.25 0.71875,-0.265625 0.984375,-0.78125 0.984375,-1.21875 0,-0.546875 -0.625,-0.953125 -1.40625,-0.953125 -0.765625,0 -1.359375,0.375 -1.359375,0.9375 0,0.234375 0.15625,0.359375 0.359375,0.359375 0.21875,0 0.359375,-0.15625 0.359375,-0.34375 0,-0.203125 -0.140625,-0.359375 -0.359375,-0.375 0.25,-0.296875 0.71875,-0.375 0.984375,-0.375 0.3125,0 0.75,0.15625 0.75,0.75 0,0.296875 -0.09375,0.625 -0.28125,0.828125 -0.21875,0.265625 -0.421875,0.28125 -0.765625,0.3125 -0.171875,0.015625 -0.1875,0.015625 -0.21875,0.015625 -0.015625,0 -0.078125,0.015625 -0.078125,0.09375 0,0.09375 0.0625,0.09375 0.1875,0.09375 z m 0,0"
   id="id-115fcb96-efac-4f2b-bb1d-097a000968da"
   style="stroke-width:0" />
      </g></g>
</g><path
   d="m 728.04479,442.04653 -197.303,84.423 v -263.782 l 205.776,-88.048 c 0.363,1.283 0.538,2.586 0.538,3.899 v 249.853 c 0,5.946 -3.536,11.314 -9.011,13.655 z"
   id="path77"
   style="fill:url(#pattern79);fill-opacity:1;opacity:0.10042433" /><g
   transform="matrix(7.72686,-3.4431162,0,7.72686,600.60001,348.88237)"
   ns2:version="1.8.2"
   ns2:texconverter="pdflatex"
   ns2:pdfconverter="inkscape"
   ns2:text="$\\mathrm{e}_{12}$"
   ns2:preamble="/Users/manelvelasco/Library/Application Support/org.inkscape.Inkscape/config/inkscape/extensions/textext/default_packages.tex"
   ns2:scale="5.795149516267967"
   ns2:alignment="middle center"
   ns2:stroke-to-path="0"
   id="g40"
   ns2:jacobian_sqrt="7.72686"
   style="stroke-width:0"><defs
   id="id-dbff117e-9dc6-45b8-88d5-abac3329a75a"
   style="stroke-width:0">
    <g
   id="id-94bce747-d4d3-4319-ab75-ae3b5de9c800"
   style="stroke-width:0">
      <g
   id="id-9a25f453-63d2-4326-a22e-d9ccbc8da8cf"
   style="stroke-width:0" />
      <g
   id="id-02672640-899c-4d47-af49-6347682aa305"
   style="stroke-width:0">
        <path
   d="M 1.109375,-2.515625 C 1.171875,-4 2.015625,-4.25 2.359375,-4.25 c 1.015625,0 1.125,1.34375 1.125,1.734375 z m 0,0.21875 h 2.78125 c 0.21875,0 0.25,0 0.25,-0.21875 0,-0.984375 -0.546875,-1.953125 -1.78125,-1.953125 -1.15625,0 -2.078125,1.03125 -2.078125,2.28125 0,1.328125 1.046875,2.296875 2.1875,2.296875 C 3.6875,0.109375 4.140625,-1 4.140625,-1.1875 4.140625,-1.28125 4.0625,-1.3125 4,-1.3125 c -0.078125,0 -0.109375,0.0625 -0.125,0.140625 -0.34375,1.03125 -1.25,1.03125 -1.34375,1.03125 -0.5,0 -0.890625,-0.296875 -1.125,-0.671875 -0.296875,-0.46875 -0.296875,-1.125 -0.296875,-1.484375 z m 0,0"
   id="id-680e2431-5bef-4226-8a3a-4609b4a29881"
   style="stroke-width:0" />
      </g>
      <g
   id="id-17106dda-55f0-458f-85fd-25f536d05072"
   style="stroke-width:0" />
      <g
   id="id-913ebdf4-ca8d-4b0a-9135-086a7d0f8b04"
   style="stroke-width:0">
        <path
   d="m 2.328125,-4.4375 c 0,-0.1875 0,-0.1875 -0.203125,-0.1875 -0.453125,0.4375 -1.078125,0.4375 -1.359375,0.4375 v 0.25 c 0.15625,0 0.625,0 1,-0.1875 v 3.546875 c 0,0.234375 0,0.328125 -0.6875,0.328125 H 0.8125 V 0 c 0.125,0 0.984375,-0.03125 1.234375,-0.03125 0.21875,0 1.09375,0.03125 1.25,0.03125 V -0.25 H 3.03125 c -0.703125,0 -0.703125,-0.09375 -0.703125,-0.328125 z m 0,0"
   id="id-ea6db748-fcf8-4967-8cee-2e306fb4de85"
   style="stroke-width:0" />
      </g>
      <g
   id="id-1f7e151d-f6f3-4724-88fd-bb71149c22cf"
   style="stroke-width:0">
        <path
   d="M 3.515625,-1.265625 H 3.28125 c -0.015625,0.15625 -0.09375,0.5625 -0.1875,0.625 C 3.046875,-0.59375 2.515625,-0.59375 2.40625,-0.59375 H 1.125 c 0.734375,-0.640625 0.984375,-0.84375 1.390625,-1.171875 0.515625,-0.40625 1,-0.84375 1,-1.5 0,-0.84375 -0.734375,-1.359375 -1.625,-1.359375 -0.859375,0 -1.453125,0.609375 -1.453125,1.25 0,0.34375 0.296875,0.390625 0.375,0.390625 0.15625,0 0.359375,-0.125 0.359375,-0.375 0,-0.125 -0.046875,-0.375 -0.40625,-0.375 C 0.984375,-4.21875 1.453125,-4.375 1.78125,-4.375 c 0.703125,0 1.0625,0.546875 1.0625,1.109375 0,0.609375 -0.4375,1.078125 -0.65625,1.328125 L 0.515625,-0.265625 C 0.4375,-0.203125 0.4375,-0.1875 0.4375,0 h 2.875 z m 0,0"
   id="id-d6efcbce-4520-4697-adde-0662e5ba494a"
   style="stroke-width:0" />
      </g>
    </g>
  </defs>
  <g
   fill="#000000"
   fill-opacity="1"
   id="id-340f130c-cfb1-469b-960d-fe360c92df03"
   transform="translate(-148.993,-130.296)"
   style="stroke-width:0">
    <g
   transform="translate(148.712,134.765)"
   id="g906"
   style="stroke-width:0"><path
   d="M 1.109375,-2.515625 C 1.171875,-4 2.015625,-4.25 2.359375,-4.25 c 1.015625,0 1.125,1.34375 1.125,1.734375 z m 0,0.21875 h 2.78125 c 0.21875,0 0.25,0 0.25,-0.21875 0,-0.984375 -0.546875,-1.953125 -1.78125,-1.953125 -1.15625,0 -2.078125,1.03125 -2.078125,2.28125 0,1.328125 1.046875,2.296875 2.1875,2.296875 C 3.6875,0.109375 4.140625,-1 4.140625,-1.1875 4.140625,-1.28125 4.0625,-1.3125 4,-1.3125 c -0.078125,0 -0.109375,0.0625 -0.125,0.140625 -0.34375,1.03125 -1.25,1.03125 -1.34375,1.03125 -0.5,0 -0.890625,-0.296875 -1.125,-0.671875 -0.296875,-0.46875 -0.296875,-1.125 -0.296875,-1.484375 z m 0,0"
   id="id-09566144-60f1-40cf-b8d3-d42fe26a07d6"
   style="stroke-width:0" />
      </g></g>
  <g
   fill="#000000"
   fill-opacity="1"
   id="id-3d57342a-4609-49f3-a2ad-a74ed83f99dc"
   transform="translate(-148.993,-130.296)"
   style="stroke-width:0">
    <g
   transform="translate(153.14,136.259)"
   id="g622"
   style="stroke-width:0"><path
   d="m 2.328125,-4.4375 c 0,-0.1875 0,-0.1875 -0.203125,-0.1875 -0.453125,0.4375 -1.078125,0.4375 -1.359375,0.4375 v 0.25 c 0.15625,0 0.625,0 1,-0.1875 v 3.546875 c 0,0.234375 0,0.328125 -0.6875,0.328125 H 0.8125 V 0 c 0.125,0 0.984375,-0.03125 1.234375,-0.03125 0.21875,0 1.09375,0.03125 1.25,0.03125 V -0.25 H 3.03125 c -0.703125,0 -0.703125,-0.09375 -0.703125,-0.328125 z m 0,0"
   id="id-440e1f1b-33ab-4d7a-a036-78f5616fcdec"
   style="stroke-width:0" />
      </g><g
   transform="translate(157.112,136.259)"
   id="g6365"
   style="stroke-width:0"><path
   d="M 3.515625,-1.265625 H 3.28125 c -0.015625,0.15625 -0.09375,0.5625 -0.1875,0.625 C 3.046875,-0.59375 2.515625,-0.59375 2.40625,-0.59375 H 1.125 c 0.734375,-0.640625 0.984375,-0.84375 1.390625,-1.171875 0.515625,-0.40625 1,-0.84375 1,-1.5 0,-0.84375 -0.734375,-1.359375 -1.625,-1.359375 -0.859375,0 -1.453125,0.609375 -1.453125,1.25 0,0.34375 0.296875,0.390625 0.375,0.390625 0.15625,0 0.359375,-0.125 0.359375,-0.375 0,-0.125 -0.046875,-0.375 -0.40625,-0.375 C 0.984375,-4.21875 1.453125,-4.375 1.78125,-4.375 c 0.703125,0 1.0625,0.546875 1.0625,1.109375 0,0.609375 -0.4375,1.078125 -0.65625,1.328125 L 0.515625,-0.265625 C 0.4375,-0.203125 0.4375,-0.1875 0.4375,0 h 2.875 z m 0,0"
   id="id-5071c7d4-335f-4e1b-a0fd-e2652e2f3128"
   style="stroke-width:0" />
      </g></g>
</g><path
   d="m 522.08279,78.059533 c 2.018,0 3.987,0.401 5.828,1.195 l 193.776,82.905997 -199.604,85.403 -199.605,-85.403 193.767,-82.905997 c 1.852,-0.794 3.82,-1.195 5.838,-1.195 z"
   id="path76"
   style="fill:url(#pattern129);fill-opacity:1;opacity:0.10042433" /><path
   d="m 307.10979,428.39153 v -249.854 c 0,-1.313 0.176,-2.616 0.539,-3.899 l 205.785,88.048 v 263.783 l -197.313,-84.423 c -5.475,-2.341 -9.011,-7.709 -9.011,-13.655 z"
   id="path129"
   style="fill:url(#pattern180);fill-opacity:1;opacity:0.10042433" /><g
   transform="matrix(7.72686,1.9672719,0,7.72686,370.5943,329.96336)"
   ns2:version="1.8.2"
   ns2:texconverter="pdflatex"
   ns2:pdfconverter="inkscape"
   ns2:text="$\\mathrm{e}_{23}$"
   ns2:preamble="/Users/manelvelasco/Library/Application Support/org.inkscape.Inkscape/config/inkscape/extensions/textext/default_packages.tex"
   ns2:scale="5.795149516267967"
   ns2:alignment="middle center"
   ns2:stroke-to-path="0"
   id="g52"
   ns2:jacobian_sqrt="7.72686"
   style="stroke-width:0"><defs
   id="id-1c056cdb-e861-4b6f-a7cd-7cde524da6ec"
   style="stroke-width:0">
    <g
   id="id-8fc340e9-b64b-4c36-b7a2-4df1098c6f6b"
   style="stroke-width:0">
      <g
   id="id-aea85ff6-91b4-48f5-91ad-d8422c3b1331"
   style="stroke-width:0" />
      <g
   id="id-898c881b-5eee-4196-8ac9-229714defa5b"
   style="stroke-width:0">
        <path
   d="M 1.109375,-2.515625 C 1.171875,-4 2.015625,-4.25 2.359375,-4.25 c 1.015625,0 1.125,1.34375 1.125,1.734375 z m 0,0.21875 h 2.78125 c 0.21875,0 0.25,0 0.25,-0.21875 0,-0.984375 -0.546875,-1.953125 -1.78125,-1.953125 -1.15625,0 -2.078125,1.03125 -2.078125,2.28125 0,1.328125 1.046875,2.296875 2.1875,2.296875 C 3.6875,0.109375 4.140625,-1 4.140625,-1.1875 4.140625,-1.28125 4.0625,-1.3125 4,-1.3125 c -0.078125,0 -0.109375,0.0625 -0.125,0.140625 -0.34375,1.03125 -1.25,1.03125 -1.34375,1.03125 -0.5,0 -0.890625,-0.296875 -1.125,-0.671875 -0.296875,-0.46875 -0.296875,-1.125 -0.296875,-1.484375 z m 0,0"
   id="id-dcce36c8-eb14-4b18-bd81-a12254f1f1b1"
   style="stroke-width:0" />
      </g>
      <g
   id="id-584b1cea-0cb7-4f2b-87db-b3c060a0f89f"
   style="stroke-width:0" />
      <g
   id="id-6a9abd98-6cb1-41b6-8b0d-946a3951c106"
   style="stroke-width:0">
        <path
   d="M 3.515625,-1.265625 H 3.28125 c -0.015625,0.15625 -0.09375,0.5625 -0.1875,0.625 C 3.046875,-0.59375 2.515625,-0.59375 2.40625,-0.59375 H 1.125 c 0.734375,-0.640625 0.984375,-0.84375 1.390625,-1.171875 0.515625,-0.40625 1,-0.84375 1,-1.5 0,-0.84375 -0.734375,-1.359375 -1.625,-1.359375 -0.859375,0 -1.453125,0.609375 -1.453125,1.25 0,0.34375 0.296875,0.390625 0.375,0.390625 0.15625,0 0.359375,-0.125 0.359375,-0.375 0,-0.125 -0.046875,-0.375 -0.40625,-0.375 C 0.984375,-4.21875 1.453125,-4.375 1.78125,-4.375 c 0.703125,0 1.0625,0.546875 1.0625,1.109375 0,0.609375 -0.4375,1.078125 -0.65625,1.328125 L 0.515625,-0.265625 C 0.4375,-0.203125 0.4375,-0.1875 0.4375,0 h 2.875 z m 0,0"
   id="id-d2613c56-f807-4514-b05a-23bc106bd37d"
   style="stroke-width:0" />
      </g>
      <g
   id="id-1e2ef882-85a3-44c9-ad20-21b3c1c6ad19"
   style="stroke-width:0">
        <path
   d="m 1.90625,-2.328125 c 0.546875,0 0.9375,0.375 0.9375,1.125 0,0.859375 -0.515625,1.125 -0.90625,1.125 -0.28125,0 -0.90625,-0.078125 -1.1875,-0.5 0.328125,0 0.40625,-0.234375 0.40625,-0.390625 0,-0.21875 -0.171875,-0.375 -0.390625,-0.375 -0.1875,0 -0.390625,0.125 -0.390625,0.40625 0,0.65625 0.71875,1.078125 1.5625,1.078125 0.96875,0 1.640625,-0.65625 1.640625,-1.34375 0,-0.546875 -0.4375,-1.09375 -1.203125,-1.25 0.71875,-0.265625 0.984375,-0.78125 0.984375,-1.21875 0,-0.546875 -0.625,-0.953125 -1.40625,-0.953125 -0.765625,0 -1.359375,0.375 -1.359375,0.9375 0,0.234375 0.15625,0.359375 0.359375,0.359375 0.21875,0 0.359375,-0.15625 0.359375,-0.34375 0,-0.203125 -0.140625,-0.359375 -0.359375,-0.375 0.25,-0.296875 0.71875,-0.375 0.984375,-0.375 0.3125,0 0.75,0.15625 0.75,0.75 0,0.296875 -0.09375,0.625 -0.28125,0.828125 -0.21875,0.265625 -0.421875,0.28125 -0.765625,0.3125 -0.171875,0.015625 -0.1875,0.015625 -0.21875,0.015625 -0.015625,0 -0.078125,0.015625 -0.078125,0.09375 0,0.09375 0.0625,0.09375 0.1875,0.09375 z m 0,0"
   id="id-8f45a768-e841-4d4a-a2c4-5e1bcccc64c4"
   style="stroke-width:0" />
      </g>
    </g>
  </defs>
  <g
   fill="#000000"
   fill-opacity="1"
   id="id-ae759a01-ae91-4cc2-aa60-482e4736521a"
   transform="translate(-148.993,-130.296)"
   style="stroke-width:0">
    <g
   transform="translate(148.712,134.765)"
   id="g8582"
   style="stroke-width:0"><path
   d="M 1.109375,-2.515625 C 1.171875,-4 2.015625,-4.25 2.359375,-4.25 c 1.015625,0 1.125,1.34375 1.125,1.734375 z m 0,0.21875 h 2.78125 c 0.21875,0 0.25,0 0.25,-0.21875 0,-0.984375 -0.546875,-1.953125 -1.78125,-1.953125 -1.15625,0 -2.078125,1.03125 -2.078125,2.28125 0,1.328125 1.046875,2.296875 2.1875,2.296875 C 3.6875,0.109375 4.140625,-1 4.140625,-1.1875 4.140625,-1.28125 4.0625,-1.3125 4,-1.3125 c -0.078125,0 -0.109375,0.0625 -0.125,0.140625 -0.34375,1.03125 -1.25,1.03125 -1.34375,1.03125 -0.5,0 -0.890625,-0.296875 -1.125,-0.671875 -0.296875,-0.46875 -0.296875,-1.125 -0.296875,-1.484375 z m 0,0"
   id="id-b316babd-3095-49db-8534-f475bc2a2322"
   style="stroke-width:0" />
      </g></g>
  <g
   fill="#000000"
   fill-opacity="1"
   id="id-c8759c29-f8b3-4867-a992-3b8596d76ce6"
   transform="translate(-148.993,-130.296)"
   style="stroke-width:0">
    <g
   transform="translate(153.14,136.259)"
   id="g330"
   style="stroke-width:0"><path
   d="M 3.515625,-1.265625 H 3.28125 c -0.015625,0.15625 -0.09375,0.5625 -0.1875,0.625 C 3.046875,-0.59375 2.515625,-0.59375 2.40625,-0.59375 H 1.125 c 0.734375,-0.640625 0.984375,-0.84375 1.390625,-1.171875 0.515625,-0.40625 1,-0.84375 1,-1.5 0,-0.84375 -0.734375,-1.359375 -1.625,-1.359375 -0.859375,0 -1.453125,0.609375 -1.453125,1.25 0,0.34375 0.296875,0.390625 0.375,0.390625 0.15625,0 0.359375,-0.125 0.359375,-0.375 0,-0.125 -0.046875,-0.375 -0.40625,-0.375 C 0.984375,-4.21875 1.453125,-4.375 1.78125,-4.375 c 0.703125,0 1.0625,0.546875 1.0625,1.109375 0,0.609375 -0.4375,1.078125 -0.65625,1.328125 L 0.515625,-0.265625 C 0.4375,-0.203125 0.4375,-0.1875 0.4375,0 h 2.875 z m 0,0"
   id="id-5bd21924-101e-4b87-84ac-048b034f757c"
   style="stroke-width:0" />
      </g><g
   transform="translate(157.112,136.259)"
   id="g1916"
   style="stroke-width:0"><path
   d="m 1.90625,-2.328125 c 0.546875,0 0.9375,0.375 0.9375,1.125 0,0.859375 -0.515625,1.125 -0.90625,1.125 -0.28125,0 -0.90625,-0.078125 -1.1875,-0.5 0.328125,0 0.40625,-0.234375 0.40625,-0.390625 0,-0.21875 -0.171875,-0.375 -0.390625,-0.375 -0.1875,0 -0.390625,0.125 -0.390625,0.40625 0,0.65625 0.71875,1.078125 1.5625,1.078125 0.96875,0 1.640625,-0.65625 1.640625,-1.34375 0,-0.546875 -0.4375,-1.09375 -1.203125,-1.25 0.71875,-0.265625 0.984375,-0.78125 0.984375,-1.21875 0,-0.546875 -0.625,-0.953125 -1.40625,-0.953125 -0.765625,0 -1.359375,0.375 -1.359375,0.9375 0,0.234375 0.15625,0.359375 0.359375,0.359375 0.21875,0 0.359375,-0.15625 0.359375,-0.34375 0,-0.203125 -0.140625,-0.359375 -0.359375,-0.375 0.25,-0.296875 0.71875,-0.375 0.984375,-0.375 0.3125,0 0.75,0.15625 0.75,0.75 0,0.296875 -0.09375,0.625 -0.28125,0.828125 -0.21875,0.265625 -0.421875,0.28125 -0.765625,0.3125 -0.171875,0.015625 -0.1875,0.015625 -0.21875,0.015625 -0.015625,0 -0.078125,0.015625 -0.078125,0.09375 0,0.09375 0.0625,0.09375 0.1875,0.09375 z m 0,0"
   id="id-2e87d3ae-21c3-46da-b28d-30a4abe8494c"
   style="stroke-width:0" />
      </g></g>
</g><g
   transform="matrix(6.6294307,-2.8889873,6.2664338,4.0892672,468.50951,164.13957)"
   ns2:version="1.8.2"
   ns2:texconverter="pdflatex"
   ns2:pdfconverter="inkscape"
   ns2:text="$\\mathrm{e}_{13}$"
   ns2:preamble="/Users/manelvelasco/Library/Application Support/org.inkscape.Inkscape/config/inkscape/extensions/textext/default_packages.tex"
   ns2:scale="5.795149516267967"
   ns2:alignment="middle center"
   ns2:stroke-to-path="0"
   id="g64"
   ns2:jacobian_sqrt="7.72686"
   style="stroke-width:0"><defs
   id="id-d861f0f9-7816-4de3-8565-f097bf430257"
   style="stroke-width:0">
    <g
   id="id-8a70c936-2cb4-495e-b0b0-b7354d05953a"
   style="stroke-width:0">
      <g
   id="id-bed38dd4-8c3d-46e3-b8e9-40fac64a910c"
   style="stroke-width:0" />
      <g
   id="id-d2f32100-6d54-48f4-bd07-3b44bb1adea2"
   style="stroke-width:0">
        <path
   d="M 1.109375,-2.515625 C 1.171875,-4 2.015625,-4.25 2.359375,-4.25 c 1.015625,0 1.125,1.34375 1.125,1.734375 z m 0,0.21875 h 2.78125 c 0.21875,0 0.25,0 0.25,-0.21875 0,-0.984375 -0.546875,-1.953125 -1.78125,-1.953125 -1.15625,0 -2.078125,1.03125 -2.078125,2.28125 0,1.328125 1.046875,2.296875 2.1875,2.296875 C 3.6875,0.109375 4.140625,-1 4.140625,-1.1875 4.140625,-1.28125 4.0625,-1.3125 4,-1.3125 c -0.078125,0 -0.109375,0.0625 -0.125,0.140625 -0.34375,1.03125 -1.25,1.03125 -1.34375,1.03125 -0.5,0 -0.890625,-0.296875 -1.125,-0.671875 -0.296875,-0.46875 -0.296875,-1.125 -0.296875,-1.484375 z m 0,0"
   id="id-4ea1f2ff-d3df-4a9a-94d0-c8dff86bdd2f"
   style="stroke-width:0" />
      </g>
      <g
   id="id-3312e503-f1a0-4983-92fe-6671efd6fd79"
   style="stroke-width:0" />
      <g
   id="id-1a59fe28-3e1f-4545-a1bd-effdd57d980e"
   style="stroke-width:0">
        <path
   d="m 2.328125,-4.4375 c 0,-0.1875 0,-0.1875 -0.203125,-0.1875 -0.453125,0.4375 -1.078125,0.4375 -1.359375,0.4375 v 0.25 c 0.15625,0 0.625,0 1,-0.1875 v 3.546875 c 0,0.234375 0,0.328125 -0.6875,0.328125 H 0.8125 V 0 c 0.125,0 0.984375,-0.03125 1.234375,-0.03125 0.21875,0 1.09375,0.03125 1.25,0.03125 V -0.25 H 3.03125 c -0.703125,0 -0.703125,-0.09375 -0.703125,-0.328125 z m 0,0"
   id="id-6135c5c4-d1b6-43ca-b482-4c895849d4b6"
   style="stroke-width:0" />
      </g>
      <g
   id="id-d87dc07e-02d4-401a-ae1b-814216bf40a3"
   style="stroke-width:0">
        <path
   d="m 1.90625,-2.328125 c 0.546875,0 0.9375,0.375 0.9375,1.125 0,0.859375 -0.515625,1.125 -0.90625,1.125 -0.28125,0 -0.90625,-0.078125 -1.1875,-0.5 0.328125,0 0.40625,-0.234375 0.40625,-0.390625 0,-0.21875 -0.171875,-0.375 -0.390625,-0.375 -0.1875,0 -0.390625,0.125 -0.390625,0.40625 0,0.65625 0.71875,1.078125 1.5625,1.078125 0.96875,0 1.640625,-0.65625 1.640625,-1.34375 0,-0.546875 -0.4375,-1.09375 -1.203125,-1.25 0.71875,-0.265625 0.984375,-0.78125 0.984375,-1.21875 0,-0.546875 -0.625,-0.953125 -1.40625,-0.953125 -0.765625,0 -1.359375,0.375 -1.359375,0.9375 0,0.234375 0.15625,0.359375 0.359375,0.359375 0.21875,0 0.359375,-0.15625 0.359375,-0.34375 0,-0.203125 -0.140625,-0.359375 -0.359375,-0.375 0.25,-0.296875 0.71875,-0.375 0.984375,-0.375 0.3125,0 0.75,0.15625 0.75,0.75 0,0.296875 -0.09375,0.625 -0.28125,0.828125 -0.21875,0.265625 -0.421875,0.28125 -0.765625,0.3125 -0.171875,0.015625 -0.1875,0.015625 -0.21875,0.015625 -0.015625,0 -0.078125,0.015625 -0.078125,0.09375 0,0.09375 0.0625,0.09375 0.1875,0.09375 z m 0,0"
   id="id-abeffed4-7325-4e52-992d-4314d0d8a160"
   style="stroke-width:0" />
      </g>
    </g>
  </defs>
  <g
   fill="#000000"
   fill-opacity="1"
   id="id-e3b5959e-d35c-48e4-a0cf-01011c4f1814"
   transform="translate(-148.993,-130.296)"
   style="stroke-width:0">
    <g
   transform="translate(148.712,134.765)"
   id="g8310"
   style="stroke-width:0"><path
   d="M 1.109375,-2.515625 C 1.171875,-4 2.015625,-4.25 2.359375,-4.25 c 1.015625,0 1.125,1.34375 1.125,1.734375 z m 0,0.21875 h 2.78125 c 0.21875,0 0.25,0 0.25,-0.21875 0,-0.984375 -0.546875,-1.953125 -1.78125,-1.953125 -1.15625,0 -2.078125,1.03125 -2.078125,2.28125 0,1.328125 1.046875,2.296875 2.1875,2.296875 C 3.6875,0.109375 4.140625,-1 4.140625,-1.1875 4.140625,-1.28125 4.0625,-1.3125 4,-1.3125 c -0.078125,0 -0.109375,0.0625 -0.125,0.140625 -0.34375,1.03125 -1.25,1.03125 -1.34375,1.03125 -0.5,0 -0.890625,-0.296875 -1.125,-0.671875 -0.296875,-0.46875 -0.296875,-1.125 -0.296875,-1.484375 z m 0,0"
   id="id-af9264a6-b6d4-495a-829d-f7c8b0b2b8b8"
   style="stroke-width:0" />
      </g></g>
  <g
   fill="#000000"
   fill-opacity="1"
   id="id-6848b756-4a2c-4e9c-b30f-ac53a4a5446b"
   transform="translate(-148.993,-130.296)"
   style="stroke-width:0">
    <g
   transform="translate(153.14,136.259)"
   id="g3345"
   style="stroke-width:0"><path
   d="m 2.328125,-4.4375 c 0,-0.1875 0,-0.1875 -0.203125,-0.1875 -0.453125,0.4375 -1.078125,0.4375 -1.359375,0.4375 v 0.25 c 0.15625,0 0.625,0 1,-0.1875 v 3.546875 c 0,0.234375 0,0.328125 -0.6875,0.328125 H 0.8125 V 0 c 0.125,0 0.984375,-0.03125 1.234375,-0.03125 0.21875,0 1.09375,0.03125 1.25,0.03125 V -0.25 H 3.03125 c -0.703125,0 -0.703125,-0.09375 -0.703125,-0.328125 z m 0,0"
   id="id-9fd6c956-7b56-4ee6-85ec-ae0d1818fe89"
   style="stroke-width:0" />
      </g><g
   transform="translate(157.112,136.259)"
   id="g9425"
   style="stroke-width:0"><path
   d="m 1.90625,-2.328125 c 0.546875,0 0.9375,0.375 0.9375,1.125 0,0.859375 -0.515625,1.125 -0.90625,1.125 -0.28125,0 -0.90625,-0.078125 -1.1875,-0.5 0.328125,0 0.40625,-0.234375 0.40625,-0.390625 0,-0.21875 -0.171875,-0.375 -0.390625,-0.375 -0.1875,0 -0.390625,0.125 -0.390625,0.40625 0,0.65625 0.71875,1.078125 1.5625,1.078125 0.96875,0 1.640625,-0.65625 1.640625,-1.34375 0,-0.546875 -0.4375,-1.09375 -1.203125,-1.25 0.71875,-0.265625 0.984375,-0.78125 0.984375,-1.21875 0,-0.546875 -0.625,-0.953125 -1.40625,-0.953125 -0.765625,0 -1.359375,0.375 -1.359375,0.9375 0,0.234375 0.15625,0.359375 0.359375,0.359375 0.21875,0 0.359375,-0.15625 0.359375,-0.34375 0,-0.203125 -0.140625,-0.359375 -0.359375,-0.375 0.25,-0.296875 0.71875,-0.375 0.984375,-0.375 0.3125,0 0.75,0.15625 0.75,0.75 0,0.296875 -0.09375,0.625 -0.28125,0.828125 -0.21875,0.265625 -0.421875,0.28125 -0.765625,0.3125 -0.171875,0.015625 -0.1875,0.015625 -0.21875,0.015625 -0.015625,0 -0.078125,0.015625 -0.078125,0.09375 0,0.09375 0.0625,0.09375 0.1875,0.09375 z m 0,0"
   id="id-33cd400a-32fc-436b-9505-a3dfd75f875d"
   style="stroke-width:0" />
      </g></g>
</g></svg>
